<?xml version="1.0" encoding="UTF-8"?><svg xmlns="http://www.w3.org/2000/svg" xmlns:xlink="http://www.w3.org/1999/xlink" viewBox="0 0 605.8 75.56"><defs><style>.g{fill:#1270b7;}.h{fill:url(#f);}.i{fill:#e94732;}.j{fill:url(#d);}.k{fill:url(#e);}.l{fill:#3973b9;}.m{fill:#477ec0;}.n{fill:#094798;}</style><radialGradient id="d" cx="35.66" cy="44.98" fx="35.66" fy="44.98" r="31.59" gradientTransform="matrix(1, 0, 0, 1, 0, 0)" gradientUnits="userSpaceOnUse"><stop offset=".44" stop-color="#4dacd3"/><stop offset=".7" stop-color="#4caad1"/><stop offset=".79" stop-color="#49a3cd"/><stop offset=".86" stop-color="#4597c7"/><stop offset=".92" stop-color="#3e86bd"/><stop offset=".96" stop-color="#3670b0"/><stop offset="1" stop-color="#2d59a3"/></radialGradient><linearGradient id="e" x1="0" y1="32.69" x2="74.55" y2="32.69" gradientTransform="matrix(1, 0, 0, 1, 0, 0)" gradientUnits="userSpaceOnUse"><stop offset="0" stop-color="#68c6de"/><stop offset="1" stop-color="#2f519f"/></linearGradient><radialGradient id="f" cx="42.25" cy="49.56" fx="42.25" fy="49.56" r="24.25" gradientTransform="matrix(1, 0, 0, 1, 0, 0)" gradientUnits="userSpaceOnUse"><stop offset=".44" stop-color="#f28f40"/><stop offset=".68" stop-color="#f08d3f"/><stop offset=".77" stop-color="#e98a3b"/><stop offset=".84" stop-color="#dd8336"/><stop offset=".89" stop-color="#cc792e"/><stop offset=".94" stop-color="#b66c23"/><stop offset=".97" stop-color="#9b5d17"/><stop offset="1" stop-color="#85510d"/></radialGradient></defs><g id="a"/><g id="b"><g id="c"><g><g><g><path class="g" d="M127.25,48.14c-3.36,3.32-7.62,4.97-12.77,4.97s-9.41-1.66-12.77-4.97c-3.36-3.32-5.04-7.55-5.04-12.71s1.68-9.33,5.04-12.67c3.36-3.34,7.62-5.01,12.77-5.01s9.41,1.67,12.77,5.01c3.36,3.34,5.04,7.56,5.04,12.67s-1.68,9.39-5.04,12.71Zm-21.58-3.76c2.33,2.38,5.27,3.56,8.81,3.56s6.48-1.19,8.81-3.56c2.33-2.38,3.5-5.36,3.5-8.94s-1.17-6.55-3.5-8.91c-2.33-2.35-5.27-3.53-8.81-3.53s-6.48,1.18-8.81,3.53c-2.33,2.35-3.5,5.32-3.5,8.91s1.17,6.57,3.5,8.94Z"/><path class="g" d="M158.72,18.42h3.09v5.24h-3.09c-3.54,0-6.41,1.06-8.6,3.19-2.2,2.13-3.29,5.05-3.29,8.77v16.81h-5.38v-16.81c0-5.56,1.57-9.82,4.71-12.77,3.14-2.96,7.33-4.44,12.57-4.44Z"/><path class="g" d="M184.73,53.11c-4.97,0-9.12-1.67-12.44-5.01-3.32-3.34-4.97-7.56-4.97-12.67s1.69-9.28,5.08-12.64,7.65-5.04,12.81-5.04,9.33,1.66,12.67,4.98c3.34,3.32,5.01,7.49,5.01,12.5v17.21h-5.11v-6.45c-1.34,2.15-3.22,3.88-5.61,5.18-2.4,1.3-4.87,1.95-7.43,1.95Zm9.18-8.74c2.31-2.38,3.46-5.36,3.46-8.94s-1.15-6.55-3.46-8.91c-2.31-2.35-5.23-3.53-8.77-3.53s-6.48,1.18-8.81,3.53c-2.33,2.35-3.5,5.32-3.5,8.91s1.17,6.57,3.5,8.94c2.33,2.38,5.27,3.56,8.81,3.56s6.46-1.19,8.77-3.56Z"/><path class="g" d="M246.31,40.34c-.94,3.85-2.91,6.95-5.92,9.28-3,2.33-6.61,3.5-10.82,3.5-5.07,0-9.24-1.67-12.54-5.01s-4.94-7.56-4.94-12.67,1.66-9.28,4.97-12.64c3.32-3.36,7.48-5.04,12.5-5.04,4.21,0,7.83,1.18,10.86,3.53,3.03,2.35,5.01,5.48,5.95,9.38h-5.78c-.85-2.33-2.25-4.19-4.2-5.58-1.95-1.39-4.22-2.08-6.82-2.08-3.5,0-6.37,1.18-8.61,3.53-2.24,2.35-3.36,5.32-3.36,8.91s1.12,6.62,3.36,8.97c2.24,2.35,5.11,3.53,8.61,3.53,2.6,0,4.87-.68,6.82-2.05,1.95-1.37,3.35-3.22,4.2-5.55h5.71Z"/><path class="g" d="M255.93,0h5.38V52.44h-5.38V0Z"/><path class="g" d="M306.08,42.42c-1.25,3.5-3.37,6.15-6.35,7.97-2.98,1.82-6.4,2.72-10.25,2.72-5.2,0-9.45-1.65-12.74-4.94-3.29-3.29-4.94-7.54-4.94-12.74s1.69-9.39,5.08-12.71c3.38-3.32,7.65-4.98,12.81-4.98,4.88,0,8.91,1.5,12.07,4.5,3.16,3,4.74,6.83,4.74,11.5,0,1.21-.11,2.33-.34,3.36h-26.42c-1.43,0-2.15,.61-2.15,1.82,0,2.24,1.15,4.36,3.46,6.35,2.31,2,5.17,2.99,8.57,2.99,2.38,0,4.56-.49,6.55-1.48,1.99-.99,3.48-2.44,4.47-4.37h5.45Zm-16.34-19.9c-3.41,0-6.23,.92-8.47,2.76-2.24,1.84-3.54,4.3-3.9,7.4h22.12c1.03,0,1.55-.47,1.55-1.41,0-2.15-1.06-4.15-3.19-5.98s-4.83-2.76-8.1-2.76Z"/><path class="g" d="M329.94,53.11c-4.21,0-7.8-.96-10.76-2.89-2.96-1.93-4.8-4.73-5.51-8.4h5.71c1.17,4.39,4.75,6.59,10.76,6.59,2.78,0,5-.48,6.66-1.45,1.66-.96,2.49-2.39,2.49-4.27,0-3.09-2.08-4.75-6.25-4.97l-7.46-.54c-3.27-.22-5.89-1.11-7.87-2.66-1.97-1.55-2.96-3.75-2.96-6.62,0-3.27,1.29-5.78,3.87-7.53,2.58-1.75,5.88-2.62,9.92-2.62s7.32,.85,10.12,2.55c2.8,1.7,4.65,4.33,5.55,7.87h-5.71c-1.43-3.81-4.75-5.71-9.95-5.71-2.51,0-4.53,.44-6.05,1.31-1.52,.87-2.29,2.18-2.29,3.93,0,2.87,2.06,4.46,6.18,4.77l7.4,.47c3.5,.22,6.2,1.13,8.1,2.72,1.9,1.59,2.86,3.82,2.86,6.69,0,3.41-1.37,6.05-4.1,7.93-2.73,1.88-6.3,2.82-10.69,2.82Z"/></g><path class="l" d="M10.64,64.37c3.51,3.59,7.73,6.46,12.44,8.4-4.84-1.71-9.11-4.63-12.44-8.4Z"/><path class="j" d="M68.22,59.08c-6.69,9.95-18.05,16.48-30.94,16.48-5.02,0-9.81-1-14.19-2.8-1.18-.49-2.32-1.02-3.43-1.62-1.12-.6-2.2-1.26-3.23-1.96-2.09-1.41-4.02-3.02-5.77-4.81h-.01c-4.69-5.31-7.54-12.27-7.54-19.91,0-8.29,3.31-15.81,8.75-21.24,1.01-1.02,2.09-1.96,3.23-2.83,.39-.29,.78-.58,1.18-.85,4.79-3.23,10.68-5.16,16.9-5.16,.49,0,.91,.04,1.39,.06s.97,.05,1.44,.09c.48,.04,.93,.09,1.4,.16,.46,.07,.9,.12,1.34,.2,.02,0,.1,.04,.13,.05,.46,.09,.88,.19,1.33,.3,.46,.11,.99,.27,1.44,.4,.44,.12,.81,.22,1.24,.36,.44,.16,.84,.35,1.28,.52,.42,.17,.86,.34,1.27,.53,.42,.19,.8,.35,1.2,.56,.4,.19,.81,.41,1.18,.63,.03,0,.06,.02,.09,.04,.38,.21,.79,.44,1.16,.67,.48,.28,.96,.63,1.4,.95,.29,.2,.6,.43,.88,.64,1.16,.86,2.2,1.79,3.2,2.82,.31,.3,.6,.59,.88,.91,.33,.36,.62,.67,.92,1.05,.26,.29,.48,.6,.71,.91,.22,.28,.43,.59,.63,.88,.06,.07,.11,.17,.16,.24,.19,.27,.37,.52,.54,.78,.21,.3,.4,.62,.59,.94,.17,.29,.34,.58,.49,.88,.09,.16,.17,.3,.24,.46,.13,.24,.27,.49,.38,.74,.08,.14,.14,.31,.21,.45,.13,.28,.26,.55,.38,.83,.1,.22,.19,.44,.28,.66,.16,.36,.28,.71,.41,1.07,.13,.36,.26,.72,.37,1.07,.19,.57,.35,1.14,.5,1.72,.1,.38,.19,.76,.27,1.15,.23,1.08,.41,2.16,.52,3.27,.11,1.01,.15,2.04,.15,3.06h0c0,3.66-.64,7.15-1.82,10.38-.06,.14-.11,.3-.18,.46-.39,1.01-.82,1.98-1.32,2.93-.01,.02-.02,.06-.03,.08-.01,0-.01,.01-.01,.01-.07,.01-.12,.03-.18,.04h-.02c.06-.1,.12-.21,.17-.32,1.31-2.39,2.06-5.13,2.06-8.06,0-2.38-.5-4.65-1.39-6.7-1.88-6.32-6.51-11.76-13.1-14.44-11.53-4.69-24.66,.86-29.35,12.38-4.68,11.53,.86,24.66,12.38,29.35,0,0,22.33,7.25,37.9-11.49Z"/><path class="k" d="M74.54,38.69c0,.16,0,.33,0,.49,0,.78-.04,1.54-.13,2.29-.18,1.59-.54,3.1-1.07,4.55-.55,1.48-1.27,2.89-2.15,4.19h0c-1.15,1.71-2.56,3.23-4.17,4.5-2.11,1.67-4.76,2.97-7.44,3.66,.58-1.11,1.29-2.32,1.73-3.52,1.18-3.23,1.83-6.72,1.83-10.38,0-16.57-13.43-30.02-30.01-30.02S3.09,27.89,3.09,44.46c0,7.64,2.85,14.61,7.55,19.91C4.05,57.65,0,48.44,0,38.29,0,17.71,16.68,1.02,37.27,1.02s37.27,16.69,37.27,37.27c0,.12,0,.25,0,.38v.02Z"/><path class="h" d="M68.22,59.08c-15.57,18.74-37.9,11.49-37.9,11.49-11.53-4.69-17.06-17.83-12.38-29.35,4.69-11.53,17.83-17.07,29.35-12.38,6.59,2.68,11.23,8.11,13.1,14.44-2.59-5.97-8.55-10.15-15.47-10.15-3.6,0-6.95,1.12-9.69,3.06-4.33,3.05-7.17,8.09-7.17,13.79,0,.09,0,.17,.01,.26,.01,.96,.11,1.9,.28,2.81,.04,.26,.09,.51,.16,.74,.43,1.89,1.18,3.65,2.19,5.22,.01,.01,.02,.03,.02,.06,.32,.47,.68,.96,1.07,1.47,.04,.06,.09,.11,.14,.17,6.06,7.78,14.1,8.17,21.06,6.26,8.19-2.23,14.92-7.64,15.23-7.88Z"/></g><g><g><path class="m" d="M478.28,24.06c-.79,0-1.58-.13-2.34-.41-1.75-.62-3.16-1.89-3.96-3.57-1.65-3.47-.17-7.64,3.3-9.29,3.47-1.65,7.64-.17,9.29,3.3h0c1.65,3.47,.17,7.64-3.3,9.29-.95,.45-1.97,.68-2.99,.68Zm0-12.57c-.82,0-1.63,.18-2.39,.54-1.35,.64-2.37,1.77-2.87,3.17-.5,1.41-.42,2.92,.22,4.27,.64,1.35,1.77,2.37,3.17,2.87,1.41,.5,2.92,.42,4.27-.22,2.78-1.32,3.97-4.66,2.65-7.45h0c-.64-1.35-1.77-2.37-3.17-2.87-.61-.22-1.25-.33-1.88-.33Z"/><path class="n" d="M478.28,21.01c-1.47,0-2.88-.83-3.55-2.24-.93-1.95-.09-4.29,1.86-5.22,.95-.45,2.01-.5,3-.15,.99,.35,1.78,1.07,2.23,2.01h0c.45,.95,.5,2.01,.15,3s-1.06,1.78-2.01,2.23c-.54,.26-1.11,.38-1.68,.38Zm0-6.46c-.37,0-.74,.08-1.09,.25-1.26,.6-1.8,2.12-1.2,3.38,.6,1.26,2.12,1.8,3.38,1.2,.61-.29,1.08-.8,1.3-1.44,.23-.64,.19-1.33-.1-1.94h0c-.29-.61-.8-1.07-1.44-1.3-.28-.1-.57-.15-.85-.15Z"/></g><g><path class="m" d="M401.58,45.32c-1.49,.71-2.52,.71-3.08,.03-.56-.68-.84-2.04-.84-4.07v-11.75c0-3.27-.97-5.87-2.92-7.8-1.95-1.93-4.99-2.89-9.14-2.89-1.82,0-4.05,.2-6.68,.59-2.63,.39-5.36,.92-8.17,1.59v9.2h.31c2.9-2.36,5.64-4.36,8.21-6,2.57-1.64,4.48-2.46,5.72-2.46,.83,0,1.41,.53,1.74,1.58,.33,1.06,.5,2.87,.5,5.44v3.5c-.15-.06-.3-.12-.47-.17-.93-.31-1.89-.55-2.86-.72-.97-.16-1.9-.25-2.77-.25-2.28-.12-4.41,.22-6.4,1.03-1.99,.81-3.57,2.01-4.76,3.6-1.18,1.6-1.77,3.43-1.77,5.5,0,1.7,.38,3.32,1.15,4.85,.77,1.53,1.92,2.78,3.45,3.73,1.53,.95,3.36,1.43,5.47,1.43,1.99,0,3.73-.4,5.22-1.21,1.49-.81,2.66-1.78,3.51-2.92,.25-.34,.46-.66,.66-.99,.33,1.12,.84,2.09,1.55,2.88,1.33,1.49,3.17,2.24,5.53,2.24,2.03,0,3.66-.54,4.88-1.62,1.22-1.08,1.92-2.47,2.08-4.16l-.12-.19Zm-15.04-.31c-.75,.46-1.55,.68-2.42,.68-1.58,0-2.82-.56-3.73-1.68-.91-1.12-1.37-2.55-1.37-4.29,0-1.16,.24-2.19,.72-3.08,.48-.89,1.21-1.55,2.21-1.99,.99-.44,2.24-.61,3.73-.53,.41,.04,.83,.07,1.24,.09,.11,0,.2,.03,.31,.04v8.57c0,.55,.04,1.07,.09,1.58-.25,.23-.51,.44-.78,.6Z"/><path class="m" d="M437.76,49.8c-.5-1.87-.89-3.48-1.18-4.85-.29-1.37-.44-2.84-.44-4.41v-11.31c0-3.27-.97-5.82-2.92-7.65-1.95-1.82-4.39-2.74-7.33-2.74-2.7,0-4.98,.74-6.87,2.21-1.32,1.03-2.36,2.19-3.14,3.49v-5.33h-12.12v.25l.19,.68c.5,1.87,.88,3.48,1.15,4.85,.27,1.37,.4,2.84,.4,4.41v11.13c0,1.58-.13,3.05-.4,4.41-.27,1.37-.65,2.98-1.15,4.85l-.19,.68v.25h13.92v-.25l-.19-.68c-.5-1.87-.89-3.48-1.18-4.85-.29-1.37-.44-2.84-.44-4.41v-13.84c1.72-1,3.36-1.51,4.91-1.51,1.45,.04,2.64,.5,3.58,1.37,.93,.87,1.4,2.24,1.4,4.1v9.88c0,1.58-.13,3.05-.4,4.41-.27,1.37-.65,2.98-1.15,4.85l-.19,.68v.25h13.93v-.25l-.19-.68Z"/><path class="i" d="M460.17,18.75c-1.8,.56-3.31,1.54-4.51,2.95-.97,1.13-1.79,2.46-2.49,3.96v-6.45h-12.12v.25l.19,.68c.5,1.87,.88,3.48,1.15,4.85,.27,1.37,.4,2.84,.4,4.41v11.13c0,1.58-.13,3.05-.4,4.41-.27,1.37-.65,2.98-1.15,4.85l-.19,.68v.25h13.92v-.25l-.19-.68c-.5-1.87-.89-3.48-1.18-4.85-.29-1.37-.44-2.84-.44-4.41v-13.31c1.23-.73,2.46-1.1,3.7-1.08,1.47,.02,2.85,.4,4.13,1.15,1.28,.75,2.44,1.7,3.48,2.86h.31l1.62-11.07c-2.36-.79-4.45-.9-6.25-.34Z"/></g><g><path class="m" d="M480.6,49.55c-.18-.17-.27-.5-.27-1.01v-4.02c0-.9-.28-1.6-.84-2.12-.56-.52-1.39-.77-2.48-.77-.52,0-1.11,.06-1.79,.18-.68,.12-1.37,.29-2.07,.5v2.3h.09c.68-.65,1.35-1.18,2.01-1.61,.66-.43,1.2-.64,1.63-.64,.37,0,.66,.16,.87,.48,.21,.32,.31,.84,.31,1.56v1.1c-.13-.04-.26-.09-.42-.12-.23-.05-.48-.09-.73-.1-.78-.11-1.51-.06-2.18,.15-.68,.21-1.22,.55-1.62,1.02-.4,.47-.6,1.02-.6,1.65,0,.48,.11,.93,.33,1.36,.22,.43,.55,.77,1,1.02,.44,.26,.96,.39,1.56,.39s1.12-.12,1.57-.37c.45-.25,.81-.54,1.07-.9,.04-.05,.05-.09,.09-.14,.07,.34,.2,.62,.41,.85,.32,.35,.76,.52,1.32,.52,.43,0,.79-.11,1.08-.33,.29-.22,.47-.52,.56-.89l-.03-.05c-.4,.16-.68,.15-.86-.02Zm-2.94-.25c-.33,.24-.69,.36-1.07,.36-.5,0-.92-.17-1.24-.51-.32-.34-.48-.78-.48-1.32,0-.4,.11-.75,.33-1.06,.22-.31,.55-.54,1-.67,.44-.14,.97-.16,1.58-.06,.11,.02,.19,.01,.29,.01v2.82s0,.03,0,.05c-.13,.14-.26,.28-.41,.38Z"/><path class="m" d="M482.16,52.24c0,.79,.42,1.33,1.25,1.63,.83,.3,1.75,.45,2.74,.45,1.22,0,2.28-.2,3.18-.6,.9-.4,1.35-1.12,1.35-2.16,0-.78-.25-1.39-.75-1.82-.5-.44-1.18-.66-2.04-.66h-2.93c-.41,0-.72-.04-.95-.12-.23-.08-.34-.24-.34-.48,0-.28,.16-.49,.49-.66,.11-.06,.22-.09,.34-.12,.49,.17,.99,.28,1.51,.28,.61,0,1.21-.12,1.8-.37,.59-.25,1.07-.61,1.45-1.1,.38-.48,.57-1.06,.57-1.73s-.19-1.24-.56-1.71c-.24-.31-.54-.55-.87-.76,.28-.11,.55-.17,.82-.17,.43,0,.83,.1,1.2,.31l.04-.02,.34-1.78c-.74-.11-1.36,.01-1.84,.36-.38,.27-.67,.64-.89,1.11-.08-.04-.15-.1-.23-.13-.59-.25-1.19-.37-1.81-.37s-1.22,.12-1.8,.37c-.58,.25-1.06,.61-1.43,1.09-.37,.48-.56,1.05-.56,1.71s.19,1.25,.56,1.73c.31,.41,.72,.71,1.18,.95-.31,.08-.6,.19-.84,.34-.56,.34-.84,.86-.84,1.57,0,.54,.19,.99,.57,1.34,.02,.02,.05,.03,.07,.05-.08,.07-.18,.12-.25,.2-.33,.38-.49,.8-.49,1.27Zm2.68-9.28c.27-.46,.66-.69,1.17-.69s.9,.23,1.18,.7c.28,.47,.42,1.08,.42,1.83s-.14,1.37-.42,1.83c-.28,.47-.67,.7-1.18,.7s-.89-.23-1.17-.69c-.28-.46-.41-1.08-.41-1.84s.14-1.38,.41-1.84Zm-.04,8.29h3.02c.47,0,.81,.09,1.04,.27,.23,.18,.34,.41,.34,.7,0,.43-.27,.77-.8,1.02-.53,.25-1.21,.38-2.04,.38-.97,0-1.69-.19-2.17-.57-.48-.38-.71-.89-.7-1.51,0-.17,.02-.31,.04-.45,.34,.1,.76,.16,1.27,.16Z"/><path class="m" d="M499.08,43.8c-.29-.66-.73-1.19-1.34-1.58-.61-.39-1.34-.59-2.22-.59s-1.61,.19-2.28,.57c-.67,.38-1.19,.92-1.56,1.62-.37,.7-.56,1.51-.56,2.43,0,.97,.2,1.81,.61,2.51,.41,.71,.95,1.24,1.62,1.6,.67,.36,1.39,.54,2.15,.54,.65,0,1.23-.12,1.76-.37,.53-.25,.98-.57,1.35-.97,.37-.4,.65-.83,.83-1.28l-.07-.05c-.5,.42-.98,.72-1.45,.91-.46,.19-.94,.28-1.43,.28-.65,0-1.19-.16-1.63-.49-.44-.33-.76-.78-.98-1.36-.17-.45-.25-.97-.29-1.54h5.91c0-.81-.14-1.55-.43-2.21Zm-5.51,1.76s0-.03,0-.04c-.01-.92,.14-1.69,.46-2.31,.32-.62,.81-.93,1.46-.93,.59,0,1.02,.26,1.3,.77,.28,.52,.43,1.2,.46,2.07l-3.68,.44Z"/><path class="m" d="M509.23,49.19c-.07-.37-.1-.76-.1-1.17v-3.36c0-.99-.28-1.75-.84-2.26-.56-.52-1.26-.77-2.1-.77-.71,0-1.33,.19-1.86,.57-.41,.29-.74,.68-1.03,1.12v-1.58h-2.67v.07l.07,.25c.11,.44,.2,.85,.26,1.22,.07,.37,.1,.76,.1,1.17v3.57c0,.41-.03,.8-.1,1.17-.07,.37-.15,.78-.26,1.22l-.07,.25v.07h3.09v-.07l-.05-.25c-.11-.44-.2-.85-.26-1.22-.07-.37-.1-.76-.1-1.17v-4.17c.65-.53,1.28-.81,1.89-.81,.49,.01,.9,.17,1.23,.48,.33,.31,.49,.78,.49,1.42v3.07c0,.41-.03,.8-.1,1.17-.07,.37-.16,.78-.28,1.22l-.05,.25v.07h3.09v-.07l-.05-.25c-.12-.44-.21-.85-.28-1.22Z"/><path class="m" d="M516.61,50.54c.51-.23,.94-.54,1.3-.93,.36-.39,.63-.81,.83-1.27l-.05-.04c-.91,.73-1.84,1.1-2.78,1.1-.63,0-1.17-.16-1.61-.48-.44-.32-.77-.76-.99-1.32-.22-.56-.33-1.23-.33-1.99-.01-.61,.06-1.17,.22-1.66,.16-.5,.39-.9,.69-1.2,.3-.31,.69-.46,1.16-.46,.6,0,1.18,.27,1.73,.81,.56,.54,1.04,1.16,1.46,1.85h.09l-.04-2.48c-.14-.05-.32-.12-.52-.22-.5-.19-.97-.34-1.4-.46-.43-.11-.89-.17-1.38-.17-.87,0-1.65,.18-2.32,.55-.67,.37-1.19,.9-1.57,1.59-.38,.69-.57,1.52-.57,2.48s.2,1.84,.61,2.54c.41,.7,.95,1.23,1.62,1.58,.67,.35,1.39,.53,2.15,.53,.62,0,1.19-.12,1.7-.35Z"/><path class="m" d="M521.8,50.35c.67,.36,1.39,.54,2.15,.54,.65,0,1.23-.12,1.76-.37,.53-.25,.98-.57,1.35-.97,.37-.4,.65-.83,.83-1.28l-.07-.05c-.5,.42-.98,.72-1.45,.91-.46,.19-.94,.28-1.43,.28-.65,0-1.19-.16-1.63-.49-.44-.33-.76-.78-.98-1.36-.17-.45-.25-.97-.29-1.54h5.91c0-.81-.14-1.55-.43-2.21-.29-.66-.73-1.19-1.34-1.58-.61-.39-1.34-.59-2.22-.59s-1.61,.19-2.28,.57-1.19,.92-1.56,1.62c-.37,.7-.56,1.51-.56,2.43,0,.97,.2,1.81,.61,2.51,.41,.71,.95,1.24,1.62,1.6Zm.67-7.14c.32-.62,.81-.93,1.46-.93,.59,0,1.02,.26,1.3,.77,.28,.52,.43,1.2,.46,2.07l-3.68,.44s0-.03,0-.04c-.01-.92,.14-1.69,.46-2.31Z"/><path class="m" d="M539.31,49.19c-.07,.37-.16,.78-.28,1.22l-.05,.25v.07h3.09v-.07l-.05-.25c-.12-.44-.21-.85-.28-1.22-.07-.37-.1-.76-.1-1.17v-3.36c0-.99-.28-1.75-.84-2.26-.56-.52-1.26-.77-2.1-.77-.71,0-1.33,.19-1.86,.57-.41,.29-.74,.68-1.03,1.12v-1.58h-2.67v.07l.07,.25c.11,.44,.2,.85,.26,1.22,.07,.37,.1,.76,.1,1.17v3.57c0,.41-.03,.8-.1,1.17-.07,.37-.15,.78-.26,1.22l-.07,.25v.07h3.09v-.07l-.05-.25c-.11-.44-.2-.85-.26-1.22-.07-.37-.1-.76-.1-1.17v-4.17c.65-.53,1.28-.81,1.89-.81,.49,.01,.9,.17,1.23,.48,.33,.31,.49,.78,.49,1.42v3.07c0,.41-.03,.8-.1,1.17Z"/><path class="m" d="M550.44,50.84c.43,0,.79-.11,1.08-.33,.29-.22,.47-.52,.56-.89l-.03-.05c-.4,.16-.68,.15-.86-.02-.18-.17-.27-.5-.27-1.01v-4.02c0-.9-.28-1.6-.84-2.12-.56-.52-1.39-.77-2.48-.77-.52,0-1.11,.06-1.79,.18-.68,.12-1.37,.29-2.07,.5v2.3h.09c.68-.65,1.35-1.18,2.01-1.61,.66-.43,1.2-.64,1.63-.64,.37,0,.66,.16,.87,.48,.21,.32,.31,.84,.31,1.56v1.1c-.13-.04-.26-.09-.42-.12-.23-.05-.48-.09-.73-.1-.78-.11-1.51-.06-2.18,.15-.68,.21-1.22,.55-1.62,1.02-.4,.47-.6,1.02-.6,1.65,0,.48,.11,.93,.33,1.36,.22,.43,.55,.77,1,1.02,.44,.26,.96,.39,1.56,.39s1.12-.12,1.57-.37c.45-.25,.81-.54,1.07-.9,.04-.05,.05-.09,.09-.14,.07,.34,.2,.62,.41,.85,.32,.35,.76,.52,1.32,.52Zm-2.2-1.55c-.33,.24-.69,.36-1.07,.36-.5,0-.92-.17-1.24-.51-.32-.34-.48-.78-.48-1.32,0-.4,.11-.75,.33-1.06,.22-.31,.55-.54,1-.67,.44-.14,.97-.16,1.58-.06,.11,.02,.19,.01,.29,.01v2.82s0,.03,0,.05c-.13,.14-.26,.28-.41,.38Z"/><path class="m" d="M555.96,49.03c-.22-.23-.33-.59-.33-1.07v-5.49h2.46v-.74h-2.46v-2.84h-.14c-.41,.67-.87,1.25-1.4,1.74-.53,.49-1.2,.89-2.01,1.2v.63h1.31v5.73c0,.85,.2,1.51,.61,1.98,.41,.47,.97,.71,1.69,.71,.66,0,1.21-.18,1.66-.55,.45-.36,.79-.83,1.03-1.41-.53,.3-1.02,.45-1.49,.45-.4,0-.7-.12-.93-.35Z"/><path class="m" d="M560.85,40.1c.4,0,.74-.14,1.03-.42,.29-.28,.44-.63,.44-1.03s-.14-.73-.43-1.01c-.29-.28-.63-.42-1.04-.42s-.75,.14-1.04,.42c-.29,.28-.43,.62-.43,1.01s.14,.75,.43,1.03c.29,.28,.63,.42,1.04,.42Z"/><path class="m" d="M562.06,48.02v-6.29h-2.66v.07l.07,.25c.11,.44,.19,.85,.26,1.22,.07,.37,.1,.76,.1,1.17v3.57c0,.41-.03,.8-.1,1.17-.07,.37-.16,.78-.28,1.22l-.05,.25v.07h3.09v-.07l-.07-.25c-.11-.44-.19-.85-.26-1.22-.07-.37-.1-.76-.1-1.17Z"/><path class="m" d="M565.82,50.34c.69,.37,1.46,.55,2.31,.55s1.59-.18,2.29-.55c.7-.36,1.26-.9,1.67-1.61,.41-.71,.62-1.55,.62-2.53s-.21-1.78-.62-2.47c-.41-.69-.97-1.21-1.66-1.57-.69-.36-1.46-.54-2.3-.54s-1.62,.18-2.31,.53c-.69,.35-1.24,.87-1.64,1.56-.41,.69-.61,1.52-.61,2.49s.2,1.83,.61,2.53c.41,.71,.95,1.24,1.64,1.61Zm.47-6.11c.15-.58,.38-1.05,.69-1.41,.31-.36,.69-.54,1.15-.54s.84,.18,1.15,.54c.31,.36,.54,.83,.69,1.41,.15,.58,.22,1.24,.22,1.97s-.07,1.41-.22,2.01c-.15,.6-.38,1.08-.7,1.45-.32,.37-.7,.55-1.14,.55-.47,0-.85-.18-1.16-.55s-.53-.84-.68-1.44c-.15-.59-.22-1.27-.22-2.02s.07-1.39,.22-1.97Z"/><path class="m" d="M576.75,50.73v-.07l-.05-.25c-.11-.44-.2-.85-.26-1.22-.07-.37-.1-.76-.1-1.17v-4.17c.65-.53,1.28-.81,1.89-.81,.49,.01,.9,.17,1.23,.48,.33,.31,.49,.78,.49,1.42v3.07c0,.41-.03,.8-.1,1.17-.07,.37-.16,.78-.28,1.22l-.05,.25v.07h3.09v-.07l-.05-.25c-.12-.44-.21-.85-.28-1.22-.07-.37-.1-.76-.1-1.17v-3.36c0-.99-.28-1.75-.84-2.26-.56-.52-1.26-.77-2.1-.77-.71,0-1.33,.19-1.86,.57-.41,.29-.74,.68-1.03,1.12v-1.58h-2.67v.07l.07,.25c.11,.44,.2,.85,.26,1.22,.07,.37,.1,.76,.1,1.17v3.57c0,.41-.03,.8-.1,1.17-.07,.37-.15,.78-.26,1.22l-.07,.25v.07h3.09Z"/><path class="m" d="M586.52,50.88c.6,0,1.12-.12,1.57-.37,.45-.25,.81-.54,1.07-.9,.04-.05,.05-.09,.09-.14,.07,.34,.2,.62,.41,.85,.32,.35,.76,.52,1.32,.52,.43,0,.79-.11,1.08-.33,.29-.22,.47-.52,.56-.89l-.03-.05c-.4,.16-.68,.15-.86-.02-.18-.17-.27-.5-.27-1.01v-4.02c0-.9-.28-1.6-.84-2.12-.56-.52-1.39-.77-2.48-.77-.52,0-1.11,.06-1.79,.18-.68,.12-1.37,.29-2.07,.5v2.3h.09c.68-.65,1.35-1.18,2.01-1.61,.66-.43,1.2-.64,1.63-.64,.37,0,.66,.16,.87,.48,.21,.32,.31,.84,.31,1.56v1.1c-.13-.04-.26-.09-.42-.12-.23-.05-.48-.09-.73-.1-.78-.11-1.51-.06-2.18,.15-.68,.21-1.22,.55-1.62,1.02-.4,.47-.6,1.02-.6,1.65,0,.48,.11,.93,.33,1.36,.22,.43,.55,.77,1,1.02,.44,.26,.96,.39,1.56,.39Zm-.21-4.11c.22-.31,.55-.54,1-.67,.44-.14,.97-.16,1.58-.06,.11,.02,.19,.01,.29,.01v2.82s0,.03,0,.05c-.13,.14-.26,.28-.41,.38-.33,.24-.69,.36-1.07,.36-.5,0-.92-.17-1.24-.51-.32-.34-.48-.78-.48-1.32,0-.4,.11-.75,.33-1.06Z"/><path class="m" d="M596.15,49.19c-.07-.37-.1-.76-.1-1.17v-10.69l-2.32,.29-.43,.07,.02,.07s.04,.11,.09,.23c.11,.37,.2,.75,.28,1.12,.08,.38,.12,.79,.12,1.23v7.67c0,.41-.03,.8-.1,1.17-.07,.37-.16,.78-.28,1.22l-.05,.25v.07h3.11v-.07l-.07-.25c-.11-.44-.2-.85-.26-1.22Z"/><path class="m" d="M604.21,49.12c-.46,.19-.94,.28-1.43,.28-.65,0-1.19-.16-1.63-.49-.44-.33-.76-.78-.98-1.36-.17-.45-.25-.97-.29-1.54h5.91c0-.81-.14-1.55-.43-2.21-.29-.66-.73-1.19-1.34-1.58-.61-.39-1.34-.59-2.22-.59s-1.61,.19-2.28,.57-1.19,.92-1.56,1.62c-.37,.7-.56,1.51-.56,2.43,0,.97,.2,1.81,.61,2.51,.41,.71,.95,1.24,1.62,1.6,.67,.36,1.39,.54,2.15,.54,.65,0,1.23-.12,1.76-.37,.53-.25,.98-.57,1.35-.97,.37-.4,.65-.83,.83-1.28l-.07-.05c-.5,.42-.98,.72-1.45,.91Zm-3.9-5.91c.32-.62,.81-.93,1.46-.93,.59,0,1.02,.26,1.3,.77,.28,.52,.43,1.2,.46,2.07l-3.68,.44s0-.03,0-.04c-.01-.92,.14-1.69,.46-2.31Z"/><path class="m" d="M481.06,65.56c-.07-.37-.1-.76-.1-1.17v-10.69l-2.32,.29-.58,.09,.02,.05s.03,.11,.05,.18c.38,.8,.58,1.6,.58,2.41v2.6c-.21-.3-.46-.56-.75-.77-.54-.37-1.14-.56-1.81-.56s-1.27,.18-1.83,.53c-.56,.35-1.01,.88-1.36,1.58-.34,.7-.51,1.55-.51,2.54s.17,1.82,.5,2.51c.34,.7,.77,1.22,1.32,1.57,.54,.35,1.14,.53,1.79,.53,.61,0,1.19-.16,1.73-.49,.39-.24,.73-.58,1.03-1.02,0,.01,0,.03,0,.04,.07,.28,.17,.56,.3,.84,.04,.08,.07,.16,.1,.24,.03,.08,.06,.15,.08,.22h2.08v-.07l-.07-.25c-.11-.44-.2-.85-.26-1.22Zm-2.93,.19c-.35,.23-.73,.35-1.14,.35-.72,0-1.25-.33-1.59-1-.34-.66-.51-1.51-.51-2.52,0-.65,.08-1.22,.25-1.71,.17-.5,.41-.89,.74-1.17,.32-.28,.72-.42,1.19-.42,.42,0,.8,.11,1.15,.34,.18,.12,.35,.26,.5,.41v4.74c0,.17,0,.32,.02,.47-.2,.2-.4,.38-.61,.51Z"/><path class="m" d="M490.37,60.18c-.29-.66-.73-1.19-1.34-1.58-.61-.39-1.34-.59-2.22-.59s-1.61,.19-2.28,.57-1.19,.92-1.56,1.62c-.37,.7-.56,1.51-.56,2.43,0,.97,.2,1.81,.61,2.51,.41,.71,.95,1.24,1.62,1.6,.67,.36,1.39,.54,2.15,.54,.65,0,1.23-.12,1.76-.37s.98-.57,1.35-.97c.37-.4,.65-.83,.83-1.28l-.07-.05c-.5,.42-.98,.72-1.45,.91-.46,.19-.94,.28-1.43,.28-.65,0-1.19-.16-1.63-.49-.44-.33-.76-.78-.98-1.37-.17-.45-.25-.97-.29-1.54h5.91c0-.81-.14-1.55-.43-2.21Zm-5.51,1.76s0-.03,0-.04c-.01-.92,.14-1.69,.46-2.31,.32-.62,.81-.93,1.46-.93,.59,0,1.02,.26,1.3,.77,.28,.52,.43,1.2,.46,2.07l-3.68,.44Z"/><path class="m" d="M498.75,65.56c-.07-.37-.1-.76-.1-1.17v-10.69l-2.32,.29-.43,.07,.02,.07s.04,.11,.09,.23c.11,.37,.2,.75,.28,1.12,.08,.38,.12,.79,.12,1.23v7.67c0,.41-.03,.8-.1,1.17-.07,.37-.16,.78-.28,1.22l-.05,.25v.07h3.11v-.07l-.07-.25c-.11-.44-.2-.85-.26-1.22Z"/><path class="m" d="M507.99,65.92c-.18-.17-.27-.5-.27-1.01v-4.02c0-.9-.28-1.6-.84-2.12-.56-.52-1.39-.77-2.48-.77-.52,0-1.11,.06-1.79,.18-.68,.12-1.37,.29-2.07,.5v2.3h.09c.68-.65,1.35-1.18,2.01-1.61,.66-.43,1.2-.64,1.63-.64,.37,0,.66,.16,.87,.48,.21,.32,.31,.84,.31,1.56v1.1c-.13-.04-.26-.09-.42-.12-.23-.05-.48-.09-.73-.1-.78-.11-1.51-.06-2.18,.15-.68,.21-1.22,.55-1.62,1.02-.4,.47-.6,1.02-.6,1.65,0,.48,.11,.93,.33,1.36,.22,.43,.55,.77,1,1.02,.44,.26,.96,.39,1.56,.39s1.12-.12,1.57-.37c.45-.25,.81-.54,1.07-.9,.04-.05,.05-.09,.09-.14,.07,.34,.2,.62,.41,.85,.32,.35,.76,.52,1.32,.52,.43,0,.79-.11,1.08-.33,.29-.22,.47-.52,.56-.89l-.03-.05c-.4,.16-.68,.15-.86-.02Zm-2.94-.25c-.33,.24-.69,.36-1.07,.36-.5,0-.92-.17-1.24-.51-.32-.34-.49-.78-.49-1.32,0-.4,.11-.75,.33-1.06s.55-.54,1-.67c.44-.14,.97-.16,1.58-.06,.11,.02,.19,.01,.29,.01v2.82s0,.03,0,.05c-.13,.14-.26,.28-.41,.38Z"/><path class="m" d="M518.35,58.01c-.52,.14-.95,.4-1.32,.78-.27,.28-.49,.62-.67,.99v-1.66h-2.67v.07l.07,.25c.11,.44,.2,.85,.26,1.22,.07,.37,.1,.76,.1,1.17v3.57c0,.41-.03,.8-.1,1.17-.07,.37-.15,.78-.26,1.22l-.07,.25v.07h3.09v-.07l-.05-.25c-.11-.44-.2-.85-.26-1.22-.07-.37-.1-.76-.1-1.17v-4.17c.32-.27,.66-.43,1.01-.49,.42-.07,.82-.03,1.21,.12,.39,.16,.74,.38,1.05,.68h.07l.34-2.44c-.61-.2-1.17-.23-1.69-.09Z"/><path class="m" d="M528.49,60.18c-.29-.66-.73-1.19-1.34-1.58-.61-.39-1.34-.59-2.22-.59s-1.61,.19-2.28,.57c-.67,.38-1.19,.92-1.56,1.62-.37,.7-.56,1.51-.56,2.43,0,.97,.2,1.81,.61,2.51,.41,.71,.95,1.24,1.62,1.6,.67,.36,1.39,.54,2.15,.54,.65,0,1.23-.12,1.76-.37,.53-.25,.98-.57,1.35-.97,.37-.4,.65-.83,.83-1.28l-.07-.05c-.5,.42-.98,.72-1.45,.91-.46,.19-.94,.28-1.43,.28-.65,0-1.19-.16-1.63-.49-.44-.33-.76-.78-.98-1.37-.17-.45-.25-.97-.29-1.54h5.91c0-.81-.14-1.55-.43-2.21Zm-5.51,1.76s0-.03,0-.04c-.01-.92,.14-1.69,.46-2.31,.32-.62,.81-.93,1.46-.93,.59,0,1.02,.26,1.3,.77,.28,.52,.43,1.2,.46,2.07l-3.68,.44Z"/><path class="m" d="M535.39,65.78c-.63,0-1.17-.16-1.61-.48s-.77-.76-.99-1.32c-.22-.56-.33-1.23-.33-1.99-.01-.61,.06-1.17,.22-1.66,.16-.5,.39-.9,.69-1.2,.3-.31,.69-.46,1.16-.46,.6,0,1.18,.27,1.73,.81,.56,.54,1.04,1.16,1.46,1.85h.09l-.04-2.48c-.14-.05-.32-.12-.52-.22-.5-.19-.97-.34-1.4-.46-.43-.11-.89-.17-1.38-.17-.87,0-1.65,.18-2.32,.55-.67,.37-1.19,.9-1.57,1.59-.38,.69-.57,1.52-.57,2.48s.2,1.84,.61,2.54c.41,.7,.95,1.23,1.62,1.58,.67,.35,1.39,.53,2.15,.53,.62,0,1.19-.12,1.7-.35,.51-.23,.94-.54,1.3-.93,.36-.39,.63-.81,.83-1.27l-.05-.04c-.91,.73-1.84,1.1-2.78,1.1Z"/><path class="m" d="M547.86,65.56c-.07-.37-.1-.76-.1-1.17v-3.36c0-.99-.28-1.75-.84-2.26-.56-.52-1.26-.77-2.1-.77-.69,0-1.31,.19-1.85,.56-.38,.26-.73,.61-1.04,1.03v-5.88l-2.3,.29-.43,.07,.02,.07s.04,.11,.09,.23c.11,.37,.2,.75,.28,1.12,.08,.38,.12,.79,.12,1.23v7.67c0,.41-.03,.8-.1,1.17-.07,.37-.16,.78-.28,1.22l-.05,.25v.07h3.09v-.07l-.05-.25c-.12-.44-.21-.85-.28-1.22-.07-.37-.1-.76-.1-1.17v-4.25c.61-.46,1.22-.71,1.81-.71,.52,0,.94,.16,1.28,.47,.34,.31,.51,.78,.51,1.42v3.07c0,.41-.03,.8-.1,1.17-.07,.37-.16,.78-.28,1.22l-.05,.25v.07h3.09v-.07l-.05-.25c-.12-.44-.21-.85-.28-1.22Z"/><path class="m" d="M557.15,60.18c-.29-.66-.73-1.19-1.34-1.58-.61-.39-1.34-.59-2.22-.59s-1.61,.19-2.28,.57-1.19,.92-1.56,1.62c-.37,.7-.56,1.51-.56,2.43,0,.97,.2,1.81,.61,2.51,.41,.71,.95,1.24,1.62,1.6,.67,.36,1.39,.54,2.15,.54,.65,0,1.23-.12,1.76-.37,.53-.25,.98-.57,1.35-.97,.37-.4,.65-.83,.83-1.28l-.07-.05c-.5,.42-.98,.72-1.45,.91-.46,.19-.94,.28-1.43,.28-.65,0-1.19-.16-1.63-.49-.44-.33-.76-.78-.98-1.37-.17-.45-.25-.97-.29-1.54h5.91c0-.81-.14-1.55-.43-2.21Zm-5.51,1.76s0-.03,0-.04c-.01-.92,.14-1.69,.46-2.31,.32-.62,.81-.93,1.46-.93,.59,0,1.02,.26,1.3,.77,.28,.52,.43,1.2,.46,2.07l-3.68,.44Z"/><path class="m" d="M563.37,58.01c-.52,.14-.95,.4-1.32,.78-.27,.28-.49,.62-.67,.99v-1.66h-2.67v.07l.07,.25c.11,.44,.2,.85,.26,1.22,.07,.37,.1,.76,.1,1.17v3.57c0,.41-.03,.8-.1,1.17-.07,.37-.15,.78-.26,1.22l-.07,.25v.07h3.09v-.07l-.05-.25c-.11-.44-.2-.85-.26-1.22-.07-.37-.1-.76-.1-1.17v-4.17c.32-.27,.66-.43,1.01-.49,.42-.07,.82-.03,1.21,.12,.39,.16,.74,.38,1.05,.68h.07l.34-2.44c-.61-.2-1.17-.23-1.69-.09Z"/><path class="m" d="M570.93,65.78c-.63,0-1.17-.16-1.61-.48-.44-.32-.77-.76-.99-1.32-.22-.56-.33-1.23-.33-1.99-.01-.61,.06-1.17,.22-1.66,.16-.5,.39-.9,.69-1.2,.3-.31,.69-.46,1.16-.46,.6,0,1.18,.27,1.73,.81,.56,.54,1.04,1.16,1.46,1.85h.09l-.04-2.48c-.14-.05-.32-.12-.52-.22-.5-.19-.97-.34-1.4-.46-.43-.11-.89-.17-1.38-.17-.87,0-1.65,.18-2.32,.55-.67,.37-1.19,.9-1.57,1.59-.38,.69-.57,1.52-.57,2.48s.2,1.84,.61,2.54c.41,.7,.95,1.23,1.62,1.58,.67,.35,1.39,.53,2.15,.53,.62,0,1.19-.12,1.7-.35,.51-.23,.94-.54,1.3-.93,.36-.39,.63-.81,.83-1.27l-.05-.04c-.91,.73-1.84,1.1-2.78,1.1Z"/><path class="m" d="M583.4,65.56c-.07-.37-.1-.76-.1-1.17v-3.36c0-.99-.28-1.75-.84-2.26-.56-.52-1.26-.77-2.1-.77-.69,0-1.31,.19-1.85,.56-.38,.27-.73,.61-1.04,1.03v-5.88l-2.3,.29-.43,.07,.02,.07s.04,.11,.09,.23c.11,.37,.2,.75,.28,1.12,.08,.38,.12,.79,.12,1.23v7.67c0,.41-.03,.8-.1,1.17-.07,.37-.16,.78-.28,1.22l-.05,.25v.07h3.09v-.07l-.05-.25c-.12-.44-.21-.85-.28-1.22-.07-.37-.1-.76-.1-1.17v-4.25c.61-.46,1.22-.71,1.81-.71,.52,0,.94,.16,1.28,.47,.34,.31,.51,.78,.51,1.42v3.07c0,.41-.03,.8-.1,1.17-.07,.37-.16,.78-.28,1.22l-.05,.25v.07h3.09v-.07l-.05-.25c-.12-.44-.21-.85-.28-1.22Z"/><path class="m" d="M592.69,60.18c-.29-.66-.73-1.19-1.34-1.58-.61-.39-1.34-.59-2.22-.59s-1.61,.19-2.28,.57c-.67,.38-1.19,.92-1.56,1.62-.37,.7-.56,1.51-.56,2.43,0,.97,.2,1.81,.61,2.51,.41,.71,.95,1.24,1.62,1.6,.67,.36,1.39,.54,2.15,.54,.65,0,1.23-.12,1.76-.37,.53-.25,.98-.57,1.35-.97,.37-.4,.65-.83,.83-1.28l-.07-.05c-.5,.42-.98,.72-1.45,.91-.46,.19-.94,.28-1.43,.28-.65,0-1.19-.16-1.63-.49-.44-.33-.76-.78-.98-1.37-.17-.45-.25-.97-.29-1.54h5.91c0-.81-.14-1.55-.43-2.21Zm-5.51,1.76s0-.03,0-.04c-.01-.92,.14-1.69,.46-2.31,.32-.62,.81-.93,1.46-.93,.59,0,1.02,.26,1.3,.77,.28,.52,.43,1.2,.46,2.07l-3.68,.44Z"/></g></g></g></g></g></svg>